<svg id="Layer_1" data-name="Layer 1" xmlns="http://www.w3.org/2000/svg" viewBox="0 0 1451.85 344.44"><defs><style>.cls-1{fill:#fff;}.cls-2{fill:#963c00;}.cls-3{fill:#6e7349;}</style></defs><title>SVG</title><path class="cls-2" d="M335,108.09l4.65,18.46s-16.59-16.88-30.77-16.88h-6.08V206.4c0,4.8,2.85,7.35,6.08,9.23H281.28c3.31-1.88,6.16-4.43,6.16-9.23V109.67h-6.16c-14.18,0-30.69,16.88-30.69,16.88l4.58-18.46Z" transform="translate(5.04 7.96)"/><path class="cls-2" d="M397.38,215.63c3.3-1.88,6.15-4.43,6.15-9.23V176.91c0-22.59-7.8-32.5-18-32.5-9.31,0-17.64,8.86-17.64,20.71l-.15,41.28c0,4.8,2.86,7.35,6.16,9.23H347.17c3.3-1.88,6.16-4.43,6.16-9.23V117.32c0-4.8-2.86-7.35-6.16-9.23L367.73,105l.15,51.26c3.23-8.78,11.41-14,21.17-14,15,0,28.89,10.13,28.89,34.9V206.4c0,4.8,2.93,7.35,6.15,9.23Z" transform="translate(5.04 7.96)"/><path class="cls-2" d="M503.49,180.28c0,22-15.39,36.85-35.95,36.85s-35.94-14.86-35.94-36.85,15.38-36.84,35.94-36.84S503.49,158.3,503.49,180.28Zm-57.41,0c0,19.44,6.23,35.35,21.46,35.35s21.54-15.91,21.54-35.35-7.2-35.34-21.54-35.34S446.08,160.77,446.08,180.28Z" transform="translate(5.04 7.96)"/><path class="cls-2" d="M517.07,183V151.69h.08c-.61-3.23-3.53-5.25-6.16-6.75l20.56-3.08V183c0,21.92,6.68,32,17,32,8.56,0,17.64-8.78,17.64-20.63V154c0-4.73-3-7.21-6.15-9.08l20.56-3.08v61.46c0,4.73,2.85,7.36,6.15,9.23l-20.56,3V203.17c-3.3,8.71-11.41,14-21.16,14C529.9,217.13,517.07,206.92,517.07,183Z" transform="translate(5.04 7.96)"/><path class="cls-2" d="M594.22,233h1.65c0,9.61,11.48,18.16,31.82,18.16,16.5,0,30.09-6.3,30.09-15.15,0-6.83-5.85-9.69-18.16-10.51l-18.54-1.2c-16.13-1.13-23.79-7.51-23.79-16,0-8.18,8.48-11,14-12.23a27.49,27.49,0,0,1-14-24.61c0-17.41,13.74-29.19,32.2-29.19a36.26,36.26,0,0,1,17.18,4c-.82-.9-1.57-1.8-2.33-2.7-3.15-3.83-5.77-8.11-5.77-12.46a8,8,0,0,1,4.8-7.43c2.7-1.35,6.45-2,11.11-2h2l-.07,1.5h-1.58c-4.73,0-8.4.6-10.8,1.8-2.71,1.35-4,3.3-4,6.08,0,3.75,2.4,7.73,5.48,11.48,2.32,2.85,5,5.55,7.28,7.95a27.52,27.52,0,0,1,8.92,20.87c0,17.41-13.8,29.19-32.26,29.19a37.49,37.49,0,0,1-16.14-3.53c-5.7,1-11.33,2.93-11.33,6.61,0,4,6.45,5.62,19.06,6.45l17.56,1.28c17.64,1.2,26.19,7.58,26.19,18.31,0,15.23-16.51,23.11-36.09,23.11C608.47,252.85,594.22,244.9,594.22,233Zm52.38-61.53c0-15.39-4.28-28-17.11-28s-17,12.6-17,28,3.38,28,17,28S646.6,186.81,646.6,171.43Z" transform="translate(5.04 7.96)"/><path class="cls-2" d="M718.71,215.63c3.31-1.88,6.16-4.43,6.16-9.23V176.91c0-22.59-7.81-32.5-18-32.5-9.31,0-17.64,8.86-17.64,20.71l-.15,41.28c0,4.8,2.85,7.35,6.15,9.23H668.51c3.3-1.88,6.15-4.43,6.15-9.23V117.32c0-4.8-2.85-7.35-6.15-9.23L689.07,105l.15,51.26c3.23-8.78,11.41-14,21.16-14,15,0,28.9,10.13,28.9,34.9V206.4c0,4.8,2.92,7.35,6.15,9.23Z" transform="translate(5.04 7.96)"/><path class="cls-2" d="M771.47,129.55v13.89h21.16v1.5H771.47v50.28c0,14.26,5.93,17.48,9.6,17.48s8.93-2.4,11.34-11.18l1.42.37c-3.08,11.56-10.43,15.24-17.71,15.24-8,0-19.06-3.23-19.06-22.29v-49.9H745.43v-1.5c8.1,0,19.51-6.76,24.54-13.89Z" transform="translate(5.04 7.96)"/><path class="cls-2" d="M850,116.34l-1.13,1.21c-2.85-4.81-7.28-9.46-13.06-9.46-7.43,0-12.23,6.08-12.23,20.34v15h15.91v1.5H823.55V206.4c0,4.8,2.85,7.35,6.15,9.23H803c3.3-1.88,6.15-4.43,6.15-9.23V144.94H798.33v-1.5h10.81v-7.36c0-23.11,14.33-29.49,24.62-29.49C841.86,106.59,845.84,110.19,850,116.34Z" transform="translate(5.04 7.96)"/><path class="cls-2" d="M854.77,183V151.69h.07c-.6-3.23-3.53-5.25-6.15-6.75l20.56-3.08V183c0,21.92,6.68,32,17,32,8.56,0,17.64-8.78,17.64-20.63V154c0-4.73-3-7.21-6.16-9.08l20.56-3.08v61.46c0,4.73,2.86,7.36,6.16,9.23l-20.56,3V203.17c-3.31,8.71-11.41,14-21.17,14C867.6,217.13,854.77,206.92,854.77,183Z" transform="translate(5.04 7.96)"/><path class="cls-2" d="M931.91,215.63c3.3-1.88,6.15-4.43,6.15-9.23V117.32c0-4.8-2.85-7.35-6.15-9.23L952.47,105V206.4c0,4.8,2.85,7.35,6.16,9.23Z" transform="translate(5.04 7.96)"/><path class="cls-2" d="M1024.42,106.59c14.86,0,24.91,4,32.19,6.15L1052,132.4c-4.35-14.78-14.71-24.31-27.61-24.31s-21,6.83-21,16.66c0,11.78,14.56,20.11,25.52,28.22,19.74,14.63,31.52,21.91,31.52,37.52,0,14.71-10.51,26.64-35.35,26.64-14.93,0-28.44-4.35-35.79-6.83L994,188.84c3.6,14.56,16.73,26.79,31.14,26.79s20.57-10.51,20.57-20.11c0-12.46-11.71-20.42-27.1-30.77-17.33-11.71-28.14-19.06-28.14-34.3C990.42,116.87,1001.83,106.59,1024.42,106.59Z" transform="translate(5.04 7.96)"/><path class="cls-2" d="M1089.26,129.55v13.89h21.16v1.5h-21.16v50.28c0,14.26,5.92,17.48,9.6,17.48s8.93-2.4,11.33-11.18l1.43.37c-3.08,11.56-10.43,15.24-17.71,15.24-8,0-19.06-3.23-19.06-22.29v-49.9h-11.64v-1.5c8.11,0,19.52-6.76,24.54-13.89Z" transform="translate(5.04 7.96)"/><path class="cls-2" d="M1116.87,215.63c3.3-1.8,6.15-4.43,6.15-9.16V154.24c0-4.8-2.85-7.35-6.15-9.23l20.56-3.08V167.6a40.37,40.37,0,0,1,6.38-14,28.3,28.3,0,0,1,4.2-4.66,13.48,13.48,0,0,1,9.23-3.3,13.77,13.77,0,0,1,2.48.15,96,96,0,0,1,13.13,2.93L1170,161a15.86,15.86,0,0,0-3.9-7.66,13.41,13.41,0,0,0-10.06-4.43,13.24,13.24,0,0,0-10.88,5.48c-5.4,7.28-7.73,16.89-7.73,26.12v26c0,4.73,2.85,7.36,6.15,9.16Z" transform="translate(5.04 7.96)"/><path class="cls-2" d="M1182.38,215.63c3.3-1.88,6.16-4.43,6.16-9.23V154.17c0-4.81-2.86-7.36-6.16-9.23l20.56-3.08V206.4c0,4.8,2.86,7.35,6.16,9.23Zm5.18-93.73a7.69,7.69,0,1,1,7.73,7.73A7.66,7.66,0,0,1,1187.56,121.9Z" transform="translate(5.04 7.96)"/><path class="cls-2" d="M1283.84,203.32c0,4.8,2.85,7.36,6.08,9.23l-20.56,3.08V203c-3.38,8.85-11.86,14.18-21.69,14.18-15.16,0-29.79-10.58-29.79-36.85s15.46-36.84,29.79-36.84c8.11,0,15.31,3.6,19.44,9.75l-1.13,1.2c-3.45-5.4-9.08-8.85-14.86-8.85-10.28,0-18.76,11.18-18.76,34.74s8.48,34.67,18.76,34.67c9.31,0,18.24-10.28,18.24-20.63v-77c0-4.8-2.85-7.35-6.15-9.23l20.63-3.08Z" transform="translate(5.04 7.96)"/><path class="cls-2" d="M1356.56,164.15c0,12.3-11.56,20-24.39,20-4.65,0-11.48-1.05-16.28-3.37l.75-1.5c4.5,2.4,10.65,3.3,15.53,3.3,12.38,0,23-7.51,23-18.84,0-10.73-8.93-17.56-19-17.56-14.56,0-24.24,13-24.24,34.07s9.23,34.07,23.49,34.07A22.08,22.08,0,0,0,1356.33,198l1.51.38c-3.61,13.28-15.84,18.76-26.27,18.76-20.26,0-34.15-14.86-34.15-36.85s14.94-36.84,34.83-36.84C1345.6,143.44,1356.56,149.66,1356.56,164.15Z" transform="translate(5.04 7.96)"/><path class="cls-2" d="M1413.37,159.19l-1.5.46c-2.63-9.91-12.31-14.11-20.57-14.11-9.3,0-14.18,4.5-14.18,8.93,0,7.35,8.48,12.08,16.36,17.48,15.46,10.51,22.81,15.84,22.81,26.19,0,9.83-9.23,19-27.16,19-10.43,0-20.79-4.8-23.79-15.83l1.5-.38c2.7,10.21,11.48,14,21.76,14,8.63,0,15.61-4.2,15.61-10.58,0-6.9-4.73-11.48-18.23-20.33-12.31-8.18-19.74-12.84-19.74-23,0-9,9.38-17.56,23.94-17.56C1400.61,143.44,1410.52,148.54,1413.37,159.19Z" transform="translate(5.04 7.96)"/><path class="cls-3" d="M236.34,155.73c-.19-.67-1.12-.57-1.72-.84-11.76-5.25-23.57-6.24-31.63,3.68-1.47,1.8-2.75,3.87-5.64,4.49l7.86-17.42c1.16-2.59,15.37-7.72,15-24.24a37.46,37.46,0,0,0-5.28-18c-.69-1.16-2.24.65-2.86,1.15-13.49,10.92-18.92,21-11,37.4l6.46-12.74c-1.42,12.42-9.93,26.07-17.54,36.23a16.39,16.39,0,0,1,1.49-9.54c6.66-12.13,2-23.5-9.81-31-6.63,12.37-6.85,24.11,4.28,31.66l1.79-9.48c1.38,8.56-.27,18.37-5.94,25.73-4.41,5.73-11.32,8.54-17.51,11.71l-3.85-21.58c-.35-2-2.19-3.67-3.63-5l-9.36-8.64.69-13.5c1.95,1.76,2.83,4.21,5.28,5l12.58,4c1.81.57,3.18-1.32,3.25-2.64.17-3.56-6.5-3.3-11.8-7.06s-7.25-12.31-11.73-14.94c-3.31-1.94-8-1.39-11.18,1-4.87,3.75-9.79,8.27-12.33,14-2.23,5.05-2.17,10.86-3.06,16.2a2.34,2.34,0,0,0,1.91,2.74,2.59,2.59,0,0,0,3.06-1.7l2.51-9.69c.92-3.58,2.15-6.51,5.82-8.64L132,146l-2.39,25-5.27,12.63-4,10.37a13.76,13.76,0,0,1-6.29,1.42l-.21-14.54a8.39,8.39,0,0,0-3.45-6.84L99.5,165.93l1.78-11.45c6.16,7.35,18.75,11.31,18.76,7.12a2.53,2.53,0,0,0-1.08-2.31l-9.33-5.7c-4.82-2.94-5.66-12.67-10.31-15.48-8.13-4.93-19.6,5.72-23.06,14.19-2,4.8-1.9,10.1-2.76,15.19-.31,1.86.71,3.08,2.14,3.15a2.49,2.49,0,0,0,2.55-1.88l2.11-9.19c.84-3.61,2.21-6.76,6.08-8.76l-1.54,14.5-.91,14a46.86,46.86,0,0,1-3,14.24l-6.41,16.65L63.49,220c-13.61-13.6-22.08-30-24.84-48.79-.48-3.28-1.56-6.18-.2-9.1l1.36,8c3.07,12,7,23.42,13.94,33.58-10.58-21.94-14.36-44.63-8-68.86A94.43,94.43,0,0,1,58.89,105c13.32-19.75,32.88-34.32,56.38-39.54,31.06-6.89,61.18,2.63,84.45,23.76C171.51,57.44,125.31,48.75,86.88,67.48a101.26,101.26,0,0,0-43.47,40.74c-18.3,31.44-19.78,71.87-2.12,103.86,26.28,47.61,82.42,67.69,131.5,43.92A101.57,101.57,0,0,0,230,168.71c-2.68,13.46-5.79,25.11-12.11,36.57C189.85,256,126.2,271,79.54,234.77c11.14-13.54,31.24-20.41,47.93-15.74,3.28.92,9.56,20,38.8,8.42l-6.36-8.8c-5.76-8-17.55-10.84-27.25-6-1.32-1.29-2.12.47-.85,1.14l7.12,2.65,6.57,3c-1.79,1.16-3.11-.17-4.37-.52L130.76,216a114.21,114.21,0,0,0-18.94-3.51c6.59-3.32,13.79-4.82,21.22-6.85l16.77-4.59c2.4-.66,5,.32,7.37.58l15.5,1.73L182,207.9c9.7,1.07,15.77-2.63,22.92-9.41.33-.31,1.69-.21,1.2-1.55-.15-.43.06-.65-1-1.13l-10.43-4.55a19.87,19.87,0,0,0-22,6.28l6.34,1,6.38,1.39c-7.75,1.16-17.82-.27-25.78-3.27,13.5-6,23.9-14.56,33.09-25.33,3.89-4.56,15.22-11.43,20.17-9.69l-11.07,5.67c12.93,8,24.41,1.66,33.42-9.44C236,157,236.72,157.1,236.34,155.73ZM85.24,204.6c.69-5.21,4.66-9,5.86-14l3.49-14.54,8.7,4.11a4.21,4.21,0,0,1,2.36,3.25l1.87,13.45C99.58,198.57,93.06,201.09,85.24,204.6Zm42.65-11.34,9.71-17.4,4.11-16.13,8.17,5.05a8.49,8.49,0,0,1,3.33,4.91l5,17.2C148.09,190.47,138.74,192.05,127.89,193.26ZM201.67,97c1.14,0,2,1,1.12,2.21-17.12-18.45-43.3-30.07-69-29.1-14-.08-27,3.79-39.34,10-14.3,7.14-25.33,17.73-35,30.25C73.32,85.93,102.63,66.25,131.25,66l6.94-.05C160.62,65.83,186.73,79.76,201.67,97ZM216.5,201.19,211.7,209c-26,42.54-83,57.15-124.07,26.3,7.83,3.5,15.05,7,23.38,9.37,31.26,8.9,64.87-.26,88.12-22.59,6.7-6.43,12.36-13.45,16.13-22.27C216.21,199.22,217.08,200.24,216.5,201.19Zm-67-92.08a7.76,7.76,0,1,1-7.75-7.75A7.75,7.75,0,0,1,149.46,109.11Zm-46.15,18.21a7.54,7.54,0,1,1-7.54-7.53A7.54,7.54,0,0,1,103.31,127.32Z" transform="translate(5.04 7.96)"/><path class="cls-3" d="M718.41,241.82a7.92,7.92,0,0,0-9.94,3.3,7.73,7.73,0,0,0-1.07,4,7.64,7.64,0,0,0,1.07,4,8,8,0,0,0,2.88,2.87,7.75,7.75,0,0,0,4,1.06,7.86,7.86,0,0,0,3-.61,8.6,8.6,0,0,0,2.64-1.68l1.13,1.21a10.66,10.66,0,0,1-3.21,2,9.5,9.5,0,0,1-3.68.75,9.73,9.73,0,0,1-8.44-4.79,9.21,9.21,0,0,1-1.31-4.82,9.07,9.07,0,0,1,1.32-4.79,9.92,9.92,0,0,1,12.17-4,9.9,9.9,0,0,1,3.12,2l-1.1,1.3A8.42,8.42,0,0,0,718.41,241.82Z" transform="translate(5.04 7.96)"/><path class="cls-3" d="M745.4,240.84A9.72,9.72,0,0,1,749,244.3a9.07,9.07,0,0,1,1.32,4.79,9.22,9.22,0,0,1-1.32,4.82,10,10,0,0,1-13.45,3.5,9.64,9.64,0,0,1-3.56-3.5,9.22,9.22,0,0,1-1.32-4.82A9.07,9.07,0,0,1,732,244.3a9.61,9.61,0,0,1,3.56-3.46,10.17,10.17,0,0,1,9.88,0Zm-8.89,1.44a8,8,0,0,0-2.91,2.85,7.6,7.6,0,0,0-1.08,4,7.71,7.71,0,0,0,1.08,4,8,8,0,0,0,2.91,2.89,7.75,7.75,0,0,0,4,1.06,7.64,7.64,0,0,0,3.94-1.06,8,8,0,0,0,2.9-2.89,7.7,7.7,0,0,0,1.07-4,7.59,7.59,0,0,0-1.07-4,7.93,7.93,0,0,0-2.9-2.85,7.72,7.72,0,0,0-3.94-1.05A7.84,7.84,0,0,0,736.51,242.28Z" transform="translate(5.04 7.96)"/><path class="cls-3" d="M764.12,255.42a6.72,6.72,0,0,0,8.73,0,6.24,6.24,0,0,0,1.56-4.52V239.7h1.86v11.2a7.81,7.81,0,1,1-15.59,0V239.7h1.86v11.2A6.16,6.16,0,0,0,764.12,255.42Z" transform="translate(5.04 7.96)"/><path class="cls-3" d="M802.14,239.72H804v18.82h-2L790.35,242.6v15.94H788.5V239.72h2l11.68,15.94Z" transform="translate(5.04 7.96)"/><path class="cls-3" d="M824.57,241.67a9.5,9.5,0,0,0-2.59-.38,5.64,5.64,0,0,0-3.11.76,2.38,2.38,0,0,0-1.17,2.09,2.72,2.72,0,0,0,.65,1.88,4.52,4.52,0,0,0,1.59,1.15q.94.41,2.58.93a22.08,22.08,0,0,1,3.08,1.11,5.44,5.44,0,0,1,2,1.6,4.44,4.44,0,0,1,.82,2.78,4.35,4.35,0,0,1-.85,2.66,5.39,5.39,0,0,1-2.38,1.79,9.23,9.23,0,0,1-3.53.63,9.91,9.91,0,0,1-3.84-.78,10.14,10.14,0,0,1-3.21-2.07l.86-1.53a9.42,9.42,0,0,0,2.93,1.94,8.62,8.62,0,0,0,3.29.7,6,6,0,0,0,3.42-.88,2.72,2.72,0,0,0,1.26-2.35,2.87,2.87,0,0,0-.64-1.94,4.28,4.28,0,0,0-1.59-1.16c-.63-.27-1.51-.58-2.64-.94a27.51,27.51,0,0,1-3.07-1.12,5.22,5.22,0,0,1-2-1.56,4.32,4.32,0,0,1-.8-2.71,4.1,4.1,0,0,1,.8-2.5,5.16,5.16,0,0,1,2.27-1.66,9.17,9.17,0,0,1,3.36-.57,11.31,11.31,0,0,1,5.82,1.66l-.81,1.59A10.31,10.31,0,0,0,824.57,241.67Z" transform="translate(5.04 7.96)"/><path class="cls-3" d="M839.75,239.72h12.6v1.67H841.61v6.73h9.61v1.67h-9.61v7.08H852.7v1.67h-13Z" transform="translate(5.04 7.96)"/><path class="cls-3" d="M864,239.72h1.86v17.15h8.29v1.67H864Z" transform="translate(5.04 7.96)"/><path class="cls-3" d="M884.52,239.72h1.86v17.15h8.29v1.67H884.52Z" transform="translate(5.04 7.96)"/><path class="cls-3" d="M905.06,239.72h1.86v18.82h-1.86Z" transform="translate(5.04 7.96)"/><path class="cls-3" d="M933.22,239.72h1.83v18.82h-2L921.43,242.6v15.94h-1.86V239.72h2l11.68,15.94Z" transform="translate(5.04 7.96)"/><path class="cls-3" d="M961,249.33h1.65v6.9a10.3,10.3,0,0,1-3.19,1.81,10.83,10.83,0,0,1-3.71.66,9.82,9.82,0,0,1-8.48-4.79,9.22,9.22,0,0,1-1.32-4.82,9.07,9.07,0,0,1,1.32-4.79,9.65,9.65,0,0,1,3.6-3.46,10,10,0,0,1,5-1.28,10.46,10.46,0,0,1,3.71.68,10,10,0,0,1,3.16,1.88l-1.08,1.32a8.23,8.23,0,0,0-2.66-1.66,8.81,8.81,0,0,0-3.13-.58,7.84,7.84,0,0,0-4,1.07,8.06,8.06,0,0,0-2.91,2.86,7.94,7.94,0,0,0,0,8,8,8,0,0,0,2.93,2.88,7.9,7.9,0,0,0,4,1.06,8.31,8.31,0,0,0,2.68-.44,9.2,9.2,0,0,0,2.46-1.25Z" transform="translate(5.04 7.96)"/><path class="cls-3" d="M1003,258.54l-2.24-5H990.3l-2.21,5h-2l8.48-18.82h1.94l8.48,18.82Zm-12-6.68h9l-4.53-10.17Z" transform="translate(5.04 7.96)"/><path class="cls-3" d="M1028.47,239.72h1.83v18.82h-2l-11.65-15.94v15.94h-1.86V239.72h2l11.68,15.94Z" transform="translate(5.04 7.96)"/><path class="cls-3" d="M1055.46,241a9.43,9.43,0,0,1,3.5,12.95,9.08,9.08,0,0,1-3.51,3.39,10,10,0,0,1-5,1.24H1043V239.72h7.57A10,10,0,0,1,1055.46,241Zm-1,14.89a7.64,7.64,0,0,0,3.86-6.7,7.47,7.47,0,0,0-1.06-3.93,7.6,7.6,0,0,0-2.83-2.8,7.76,7.76,0,0,0-4-1h-5.68v15.48h5.76A7.67,7.67,0,0,0,1054.5,255.85Z" transform="translate(5.04 7.96)"/><path class="cls-3" d="M1097.55,241.35a5.73,5.73,0,0,1,1.91,4.62,6.05,6.05,0,0,1-1.91,4.79,7.88,7.88,0,0,1-5.41,1.7h-5.09v6.08h-1.85V239.72h6.94A8.13,8.13,0,0,1,1097.55,241.35Zm-1.33,8.21a4.33,4.33,0,0,0,1.47-3.54,4.19,4.19,0,0,0-1.46-3.44,6.43,6.43,0,0,0-4.17-1.19h-5v9.4h5A6.29,6.29,0,0,0,1096.22,249.56Z" transform="translate(5.04 7.96)"/><path class="cls-3" d="M1117.83,241.67a9.5,9.5,0,0,0-2.59-.38,5.62,5.62,0,0,0-3.11.76,2.38,2.38,0,0,0-1.17,2.09,2.72,2.72,0,0,0,.65,1.88,4.52,4.52,0,0,0,1.59,1.15q.93.41,2.58.93a22.08,22.08,0,0,1,3.08,1.11,5.41,5.41,0,0,1,2,1.6,4.82,4.82,0,0,1,0,5.44,5.37,5.37,0,0,1-2.39,1.79,9.17,9.17,0,0,1-3.52.63,9.91,9.91,0,0,1-3.84-.78,10.14,10.14,0,0,1-3.21-2.07l.86-1.53a9.42,9.42,0,0,0,2.93,1.94,8.58,8.58,0,0,0,3.29.7,6,6,0,0,0,3.42-.88,2.72,2.72,0,0,0,1.26-2.35,2.83,2.83,0,0,0-.65-1.94,4.2,4.2,0,0,0-1.59-1.16c-.62-.27-1.5-.58-2.63-.94a27.51,27.51,0,0,1-3.07-1.12,5.22,5.22,0,0,1-2-1.56,4.26,4.26,0,0,1-.8-2.71,4,4,0,0,1,.8-2.5,5.1,5.1,0,0,1,2.27-1.66,9.09,9.09,0,0,1,3.36-.57,11,11,0,0,1,3.08.45,10.84,10.84,0,0,1,2.73,1.21l-.8,1.59A10.31,10.31,0,0,0,1117.83,241.67Z" transform="translate(5.04 7.96)"/><path class="cls-3" d="M1146.63,239.72l-7.24,12.12v6.7h-1.86v-6.7l-7.35-12.12h1.94l6.35,10.13,6.22-10.13Z" transform="translate(5.04 7.96)"/><path class="cls-3" d="M1166.39,241.82a8,8,0,0,0-7.07.43,7.86,7.86,0,0,0-3.94,6.84,7.73,7.73,0,0,0,1.06,4,8,8,0,0,0,2.88,2.87,8,8,0,0,0,7,.45,8.48,8.48,0,0,0,2.64-1.68l1.13,1.21a10.62,10.62,0,0,1-3.2,2,9.51,9.51,0,0,1-3.69.75,9.73,9.73,0,0,1-8.44-4.79,9.3,9.3,0,0,1-1.3-4.82,9.15,9.15,0,0,1,1.31-4.79,9.92,9.92,0,0,1,12.17-4,9.84,9.84,0,0,1,3.13,2l-1.11,1.3A8.26,8.26,0,0,0,1166.39,241.82Z" transform="translate(5.04 7.96)"/><path class="cls-3" d="M1180.93,239.72h1.86v8.62h11.76v-8.62h1.86v18.82h-1.86V250h-11.76v8.53h-1.86Z" transform="translate(5.04 7.96)"/><path class="cls-3" d="M1222,240.84a9.72,9.72,0,0,1,3.57,3.46,9.16,9.16,0,0,1,1.32,4.79,9.31,9.31,0,0,1-1.32,4.82,9.93,9.93,0,0,1-17,0,9.22,9.22,0,0,1-1.32-4.82,9.07,9.07,0,0,1,1.32-4.79,9.72,9.72,0,0,1,3.57-3.46,10.17,10.17,0,0,1,9.88,0Zm-8.9,1.44a8,8,0,0,0-2.91,2.85,7.69,7.69,0,0,0-1.07,4,7.8,7.8,0,0,0,1.07,4,8,8,0,0,0,2.91,2.89,7.79,7.79,0,0,0,4,1.06A7.66,7.66,0,0,0,1221,256a7.93,7.93,0,0,0,2.89-2.89,7.71,7.71,0,0,0,1.08-4,7.6,7.6,0,0,0-1.08-4,7.9,7.9,0,0,0-2.89-2.85,7.75,7.75,0,0,0-3.94-1.05A7.88,7.88,0,0,0,1213.1,242.28Z" transform="translate(5.04 7.96)"/><path class="cls-3" d="M1234.86,239.7h14.29v1.69h-6.22v17.15h-1.86V241.39h-6.21Z" transform="translate(5.04 7.96)"/><path class="cls-3" d="M1259.14,239.72H1261v8.62h11.76v-8.62h1.86v18.82h-1.86V250H1261v8.53h-1.86Z" transform="translate(5.04 7.96)"/><path class="cls-3" d="M1287.27,239.72h12.6v1.67h-10.74v6.73h9.61v1.67h-9.61v7.08h11.09v1.67h-13Z" transform="translate(5.04 7.96)"/><path class="cls-3" d="M1323.91,258.54l-4.06-6.14q-.87.06-1.32.06h-5.17v6.08h-1.86V239.72h7a8.23,8.23,0,0,1,5.45,1.63,5.74,5.74,0,0,1,1.92,4.62,6.43,6.43,0,0,1-1.13,3.9,5.87,5.87,0,0,1-3.23,2.18l4.53,6.49Zm-5.38-7.75a6.24,6.24,0,0,0,4.14-1.23,4.35,4.35,0,0,0,1.46-3.54,4.19,4.19,0,0,0-1.46-3.44,6.4,6.4,0,0,0-4.14-1.19h-5.17v9.4Z" transform="translate(5.04 7.96)"/><path class="cls-3" d="M1351.75,258.54l-2.23-5h-10.45l-2.21,5h-2l8.48-18.82h1.94l8.48,18.82Zm-12-6.68h9l-4.53-10.17Z" transform="translate(5.04 7.96)"/><path class="cls-3" d="M1376,241.35a5.73,5.73,0,0,1,1.91,4.62,6.05,6.05,0,0,1-1.91,4.79,7.88,7.88,0,0,1-5.41,1.7h-5.09v6.08h-1.85V239.72h6.94A8.13,8.13,0,0,1,1376,241.35Zm-1.33,8.21a4.33,4.33,0,0,0,1.47-3.54,4.19,4.19,0,0,0-1.46-3.44,6.45,6.45,0,0,0-4.17-1.19h-5v9.4h5A6.31,6.31,0,0,0,1374.62,249.56Z" transform="translate(5.04 7.96)"/><path class="cls-3" d="M1401.93,239.72l-7.24,12.12v6.7h-1.86v-6.7l-7.35-12.12h1.94l6.35,10.13,6.22-10.13Z" transform="translate(5.04 7.96)"/></svg>